<svg width="512" height="512" viewBox="0 0 512 512" xmlns="http://www.w3.org/2000/svg">
  <defs>
    <linearGradient id="grad" x1="0%" y1="0%" x2="100%" y2="100%">
      <stop offset="0%" stop-color="#E91E63"></stop>
      <stop offset="100%" stop-color="#FF9800"></stop>
    </linearGradient>
  </defs>

  <!-- Rounded Square Background -->
  <rect x="32" y="32" width="448" height="448" rx="110" fill="url(#grad)"></rect>

  <!-- Heart Shape -->
  <path d="M256 360
           C256 360, 140 270, 140 200
           C140 160, 170 130, 210 130
           C235 130, 255 145, 256 165
           C257 145, 277 130, 302 130
           C342 130, 372 160, 372 200
           C372 270, 256 360, 256 360 Z" fill="none" stroke="white" stroke-width="22" stroke-linecap="round" stroke-linejoin="round"></path>

  <!-- ECG Line -->
  <path d="M180 240 
           L215 240 
           L235 215 
           L255 265 
           L275 230 
           L300 240 
           L332 240" fill="none" stroke="white" stroke-width="18" stroke-linecap="round" stroke-linejoin="round"></path>
</svg>